<?xml version="1.0" encoding="UTF-8" standalone="no"?>
<!DOCTYPE svg PUBLIC "-//W3C//DTD SVG 1.1//EN" "http://www.w3.org/Graphics/SVG/1.1/DTD/svg11.dtd">
<svg width="100%" height="100%" viewBox="0 0 1329 1317" version="1.1" xmlns="http://www.w3.org/2000/svg" xmlns:xlink="http://www.w3.org/1999/xlink" xml:space="preserve" xmlns:serif="http://www.serif.com/" style="fill-rule:evenodd;clip-rule:evenodd;stroke-linecap:round;stroke-linejoin:round;stroke-miterlimit:1.5;">
    <g transform="matrix(1,0,0,1,-335.592,-341.668)">
        <g id="g-skullIcon" transform="matrix(1,0,0,1,-78.1591,155.466)">
            <g transform="matrix(0.838975,0,0,0.831209,96.1825,87.8595)">
                <circle cx="1170.45" cy="910.33" r="782.392" style="fill:none;stroke:black;stroke-width:19.16px;"/>
            </g>
            <g id="g-skull" transform="matrix(0.798534,0,0,0.798534,168.707,267.323)">
                <g id="g-head">
                    <g id="skull" transform="matrix(1,0,0,0.820008,-53.9742,-3.85169)">
                        <path d="M1181.89,114.069C1422.96,114.069 1678.76,374.082 1618.67,674.701C1498.4,1276.39 1433.94,1213.3 1192.88,1213.3C951.815,1213.3 859.341,1253.14 745.123,674.701C685.723,373.878 940.834,114.069 1181.89,114.069Z" style="fill:white;stroke:black;stroke-width:38.34px;"/>
                    </g>
                    <g id="eyes" transform="matrix(1,0,0,1,2.84217e-13,37.5683)">
                        <g id="eyeLft" transform="matrix(-1,0,0,1,2275.25,0)">
                            <path d="M1083.54,685.27C1075.63,636.608 1010.77,577.859 913.407,583.917C785.87,591.853 820.22,766.547 943.689,798.904C1000.39,813.764 1097.17,769.122 1083.54,685.27Z" style="fill-opacity:0.72;stroke:black;stroke-width:35.06px;"/>
                        </g>
                        <path id="eyRght" d="M1083.54,685.27C1075.63,636.608 1010.77,577.859 913.407,583.917C785.87,591.853 820.22,766.547 943.689,798.904C1000.39,813.764 1097.17,769.122 1083.54,685.27Z" style="fill-opacity:0.72;"/>
                        <clipPath id="_clip1">
                            <path id="eyRght1" serif:id="eyRght" d="M1083.54,685.27C1075.63,636.608 1010.77,577.859 913.407,583.917C785.87,591.853 820.22,766.547 943.689,798.904C1000.39,813.764 1097.17,769.122 1083.54,685.27Z"/>
                        </clipPath>
                        <g clip-path="url(#_clip1)">
                            <path d="M1021.02,942.02C1125,932.232 1263.38,889.479 1257.56,942.775C1253.11,983.434 1001.85,943.824 1021.02,942.02Z" style="fill:rgb(128,128,128);stroke:black;stroke-width:35.06px;"/>
                        </g>
                        <path id="eyRght2" serif:id="eyRght" d="M1083.54,685.27C1075.63,636.608 1010.77,577.859 913.407,583.917C785.87,591.853 820.22,766.547 943.689,798.904C1000.39,813.764 1097.17,769.122 1083.54,685.27Z" style="fill:none;stroke:black;stroke-width:35.06px;"/>
                    </g>
                    <g transform="matrix(1.25229,0,0,1.25229,-113.393,-529.457)">
                        <path d="M968.595,1145.69C993.836,1119.92 1004.91,1118.1 1029.51,1145.47" style="fill:none;stroke:black;stroke-width:28px;"/>
                    </g>
                    <g id="g-brain">
                        <g id="g_brainRed">
                            <g transform="matrix(0.936599,0,0,0.802732,71.5245,25.4334)">
                                <path d="M1098.36,271.885C1136.51,216.622 1099.6,80.519 1020.68,167.217C980.284,141.994 878.202,202.429 877.261,248.808C822.46,255.08 758.441,340.264 766.679,373.379C724.424,391.9 687.584,485.462 707.268,540.426C677.811,585.305 686.191,734.006 831.976,637.328C824.882,701.12 967.085,661.287 981.679,614.259C1077.57,664.968 1147.96,564.631 1098.52,488.371C1129.17,455.774 1112.58,261.673 1098.36,271.885Z" style="fill:rgb(215,107,107);stroke:rgb(237,146,146);stroke-width:31.59px;"/>
                            </g>
                            <g transform="matrix(1.30659,0,0,1.30659,-269.623,-235.494)">
                                <path d="M806.364,579.252C776.794,542.358 827.906,498.573 864.555,529.522C884.937,485.624 924.72,494.715 944.066,509.173C924.732,553.98 973.484,602.496 1037.22,573.617" style="fill:none;stroke:rgb(237,146,146);stroke-width:21.09px;"/>
                            </g>
                            <g transform="matrix(1.30659,0,0,1.30659,-269.623,-235.494)">
                                <path d="M825.83,472.191C830.919,444.275 854.141,411.435 886.811,409.271C889.254,387.39 930.039,352.376 960.393,354.147" style="fill:none;stroke:rgb(237,146,146);stroke-width:21.09px;"/>
                            </g>
                        </g>
                        <g id="g_brainBlue" transform="matrix(1,0,0,1,0,1.25229)">
                            <g transform="matrix(-0.936599,0,0,0.802732,2184.72,25.4334)">
                                <path d="M1084.77,236.175C1118.74,168.945 1082.64,79.484 1008.39,180.175C988.864,135.561 881.765,198.21 885.862,256.372C857.198,224.175 757.359,326.75 768.493,372.739C740.15,360.554 679.125,483.257 709.178,553.772C680.966,625.596 758.747,692.632 842.539,626.523C859.614,667.55 993.42,661.456 996.685,612.105C1080.48,654.847 1137.61,587.347 1079,493.274C1124.09,487.474 1109.67,215.558 1084.77,236.175Z" style="fill:rgb(134,195,207);stroke:rgb(143,221,236);stroke-width:31.59px;"/>
                            </g>
                            <g transform="matrix(1.30659,0,0,1.30659,-269.623,-235.494)">
                                <path d="M1137.11,580.91C1181.22,578.577 1217.5,546.329 1209.29,507.948C1257.51,485.319 1298.18,510.295 1303.22,540.092C1332.62,521.814 1353.91,557.436 1339.44,568.617" style="fill:none;stroke:rgb(143,221,236);stroke-width:21.09px;"/>
                            </g>
                            <g transform="matrix(1.30659,0,0,1.30659,-269.623,-235.494)">
                                <path d="M1194.52,349.931C1226.65,347.839 1267.45,371.531 1257.7,400.951C1297.99,396.513 1317.24,441.426 1307.34,461.01" style="fill:none;stroke:rgb(143,221,236);stroke-width:21.09px;"/>
                            </g>
                            <g transform="matrix(1.30659,0,0,1.30659,-269.623,-235.494)">
                                <path d="M1108.26,442.607C1108.93,463.453 1138.48,486.055 1160.82,482.922" style="fill:none;stroke:rgb(143,221,236);stroke-width:21.09px;"/>
                            </g>
                        </g>
                    </g>
                </g>
                <g id="g-brushes" transform="matrix(1.05986,0,0,1.05986,-68.6202,-181.88)">
                    <g transform="matrix(1,0,0,1,-123.315,31.8127)">
                        <path d="M1465.97,1081.58C1206.85,1185.5 1034.65,1235.75 892.969,1358.46C1033.95,1373.98 1292.99,1390.97 1524.24,1127.7C1659.58,1160.43 1838.76,1071.75 1758.71,732.092C1687.89,976.427 1460.86,872.25 1465.97,1081.58Z" style="fill:white;stroke:black;stroke-width:33.08px;"/>
                    </g>
                    <g transform="matrix(-1,0,0,1,2394,31.8127)">
                        <path d="M1465.97,1081.58C1206.85,1185.5 1063.92,1243.29 922.244,1365.99C1063.22,1381.51 1292.99,1390.97 1524.24,1127.7C1659.58,1160.43 1838.76,1071.75 1758.71,732.092C1693.69,994.816 1444.53,887.985 1465.97,1081.58Z" style="fill:white;stroke:black;stroke-width:33.08px;"/>
                    </g>
                </g>
                <g transform="matrix(0.80308,0,0,0.80308,335.822,5.36532)">
                    <path d="M1000,1337.39C1132.91,1337.39 1240.81,1310.66 1240.81,1400C1240.81,1489.34 1132.91,1561.86 1000,1561.86C867.093,1561.86 759.19,1489.34 759.19,1400C759.19,1310.66 867.093,1337.39 1000,1337.39Z" style="fill:white;stroke:black;stroke-width:43.66px;"/>
                </g>
            </g>
        </g>
    </g>
</svg>
